<?xml version="1.0" standalone="no"?>
<!DOCTYPE svg PUBLIC "-//W3C//DTD SVG 20010904//EN"
 "http://www.w3.org/TR/2001/REC-SVG-20010904/DTD/svg10.dtd">
<svg version="1.0" xmlns="http://www.w3.org/2000/svg"
 width="764.000000pt" height="764.000000pt" viewBox="0 0 764.000000 764.000000"
 preserveAspectRatio="xMidYMid meet">
<metadata>
Created by potrace 1.11, written by Peter Selinger 2001-2013
</metadata>
<g transform="translate(0.000000,764.000000) scale(0.100000,-0.100000)"
fill="#000000" stroke="none">
<path d="M3743 7512 c-17 -2 -37 -10 -43 -18 -7 -8 -21 -14 -31 -14 -10 0 -21
-5 -24 -10 -4 -6 -21 -17 -38 -25 -18 -8 -45 -24 -62 -35 -16 -11 -40 -24 -52
-29 -12 -6 -41 -23 -65 -38 -47 -30 -129 -77 -168 -96 -14 -6 -27 -14 -30 -18
-3 -4 -29 -19 -58 -35 -29 -16 -69 -39 -90 -51 -20 -13 -49 -28 -64 -34 -16
-6 -28 -15 -28 -20 0 -5 -5 -9 -10 -9 -9 0 -68 -32 -135 -73 -63 -39 -105 -63
-140 -82 -53 -29 -113 -63 -150 -86 -16 -10 -39 -23 -50 -29 -11 -5 -38 -21
-60 -35 -22 -14 -52 -30 -67 -36 -16 -6 -28 -15 -28 -20 0 -5 -4 -9 -9 -9 -10
0 -58 -27 -201 -110 -36 -21 -85 -50 -110 -65 -25 -14 -53 -28 -63 -32 -9 -3
-17 -9 -17 -13 0 -4 -15 -13 -32 -21 -18 -7 -35 -16 -38 -19 -3 -4 -17 -13
-32 -21 -111 -58 -138 -74 -138 -81 0 -4 -5 -8 -11 -8 -9 0 -269 -147 -319
-180 -8 -6 -28 -17 -45 -26 -16 -8 -43 -23 -60 -34 -16 -11 -40 -24 -52 -29
-12 -6 -41 -22 -65 -37 -39 -25 -75 -46 -163 -94 -16 -9 -52 -30 -80 -48 -27
-17 -56 -32 -62 -32 -7 0 -13 -4 -13 -9 0 -5 -15 -15 -32 -22 -64 -26 -158
-144 -172 -215 -2 -10 -9 -32 -15 -47 -8 -20 -11 -519 -11 -1701 0 -1406 2
-1680 14 -1719 8 -26 12 -47 9 -47 -3 0 4 -16 16 -36 12 -19 21 -40 21 -45 0
-23 111 -119 187 -162 45 -26 87 -47 93 -47 5 0 10 -4 10 -9 0 -5 12 -14 28
-20 15 -6 41 -20 57 -31 17 -11 44 -27 60 -35 17 -9 44 -24 60 -35 17 -11 44
-26 61 -34 17 -8 35 -19 38 -25 4 -6 16 -11 27 -11 10 0 19 -5 19 -10 0 -6 11
-15 25 -20 13 -5 43 -22 67 -37 24 -15 46 -27 50 -28 4 0 17 -8 28 -18 11 -9
26 -17 34 -17 7 0 19 -7 26 -15 7 -8 17 -15 23 -15 6 0 18 -6 26 -14 9 -7 52
-33 96 -56 44 -23 87 -48 95 -54 8 -7 26 -17 40 -24 14 -7 32 -16 40 -22 27
-18 291 -170 295 -170 3 0 28 -15 57 -33 29 -19 74 -45 99 -59 79 -44 94 -53
99 -58 3 -3 16 -11 30 -18 14 -7 42 -22 62 -35 21 -12 59 -34 85 -48 27 -15
64 -36 83 -48 19 -11 53 -31 75 -43 22 -12 49 -28 60 -35 11 -7 34 -19 50 -28
17 -9 44 -24 60 -35 17 -10 53 -31 80 -45 28 -15 57 -33 66 -41 8 -8 18 -14
22 -14 3 0 82 -45 176 -99 95 -55 180 -103 191 -106 11 -4 20 -10 20 -15 0 -4
12 -13 28 -19 15 -6 45 -22 67 -36 22 -14 49 -30 60 -35 11 -6 27 -14 35 -19
63 -35 79 -39 174 -39 96 -1 102 1 180 39 45 22 95 49 111 59 17 11 48 30 70
42 22 12 49 28 60 35 11 7 30 17 43 23 13 5 30 17 38 25 9 8 21 15 28 15 8 0
19 7 26 15 7 8 21 15 31 15 11 0 19 5 19 10 0 6 11 15 25 20 13 5 41 20 62 33
21 13 65 39 98 57 91 50 97 53 143 83 24 15 54 32 67 37 14 5 25 14 25 20 0 6
4 9 9 6 5 -3 19 3 32 13 13 10 34 21 47 25 12 4 22 12 22 17 0 5 6 9 14 9 7 0
25 9 39 20 14 11 32 20 41 20 9 0 16 4 16 8 0 5 28 24 63 42 34 18 64 35 67
39 3 3 16 12 30 18 14 7 52 28 85 48 33 19 72 40 88 46 15 6 27 15 27 20 0 5
4 9 9 9 8 0 52 24 139 77 21 12 47 26 59 32 11 5 24 15 28 20 3 6 15 11 26 11
10 0 19 4 19 8 0 4 29 23 65 41 36 19 65 38 65 42 0 5 8 9 19 9 10 0 24 7 31
15 7 8 18 15 26 15 7 0 19 6 27 14 7 8 37 27 66 43 29 15 69 38 89 50 20 12
46 27 57 33 11 6 38 21 60 35 22 13 47 27 55 31 8 4 49 28 90 52 41 24 84 48
95 53 11 5 34 18 50 29 17 11 41 25 55 32 14 7 27 15 30 19 3 3 17 12 32 20
104 54 138 73 138 80 0 4 14 10 30 14 17 4 30 11 30 15 0 5 17 17 37 27 50 23
127 103 151 156 49 108 46 12 47 1802 1 1499 -1 1686 -15 1740 -22 85 -51 134
-107 185 -48 43 -177 130 -193 130 -5 0 -32 16 -61 35 -30 19 -59 35 -66 35
-7 0 -13 4 -13 9 0 5 -12 14 -27 20 -35 14 -133 69 -153 86 -8 7 -25 16 -37
19 -13 4 -23 12 -23 17 0 5 -6 9 -14 9 -7 0 -25 9 -39 20 -14 11 -32 20 -41
20 -9 0 -16 4 -16 9 0 5 -9 13 -21 16 -11 4 -40 20 -63 36 -24 15 -55 33 -69
38 -15 6 -27 15 -27 21 0 5 -8 10 -18 10 -11 0 -29 9 -42 20 -13 11 -29 20
-37 20 -7 0 -13 4 -13 9 0 5 -12 14 -27 20 -36 15 -87 42 -93 50 -3 4 -16 12
-30 19 -56 29 -85 45 -90 51 -3 4 -16 12 -30 18 -14 7 -52 28 -85 48 -33 19
-73 42 -90 50 -37 19 -68 38 -75 46 -3 3 -22 14 -42 24 -21 9 -38 21 -38 26 0
5 -9 9 -19 9 -11 0 -22 4 -25 9 -3 5 -29 21 -58 36 -28 15 -58 33 -65 41 -8 8
-19 14 -25 14 -5 0 -29 13 -52 28 -22 15 -56 34 -73 41 -18 7 -33 17 -33 22 0
5 -7 9 -15 9 -8 0 -38 16 -65 35 -28 19 -50 33 -50 29 0 -3 -12 3 -28 13 -43
28 -64 41 -99 59 -18 9 -33 21 -33 26 0 5 -4 7 -9 4 -5 -3 -20 3 -34 14 -14
11 -32 20 -41 20 -9 0 -19 7 -22 15 -4 8 -12 15 -19 15 -6 0 -22 9 -35 20 -13
11 -31 20 -41 20 -9 0 -19 4 -21 8 -1 4 -39 29 -83 54 -44 25 -96 56 -115 67
-19 12 -48 28 -65 36 -16 9 -43 24 -60 35 -16 10 -52 31 -80 45 -27 15 -57 32
-65 40 -8 7 -26 16 -40 20 -14 4 -31 12 -37 17 -12 10 -156 16 -220 10z m357
-527 c8 -8 26 -18 40 -24 14 -6 39 -20 55 -31 17 -11 39 -25 50 -30 11 -6 37
-21 57 -33 20 -12 60 -35 90 -51 29 -15 60 -34 68 -40 8 -6 35 -22 60 -35 25
-13 53 -31 63 -39 9 -8 17 -11 17 -7 0 4 8 1 18 -7 9 -8 42 -28 72 -44 30 -16
57 -32 60 -35 3 -4 28 -19 55 -34 111 -60 166 -92 177 -103 7 -7 17 -12 23
-12 6 0 27 -12 48 -26 40 -26 144 -86 187 -107 14 -6 27 -15 30 -18 3 -4 25
-17 50 -30 25 -12 52 -28 60 -34 8 -7 40 -26 70 -42 76 -41 120 -67 227 -129
50 -30 96 -54 102 -54 6 0 11 -4 11 -9 0 -5 12 -14 28 -20 15 -6 48 -24 74
-40 45 -28 86 -52 186 -107 26 -15 54 -32 62 -40 8 -7 26 -18 40 -24 14 -6 34
-16 45 -23 96 -58 186 -107 195 -107 5 0 10 -4 10 -9 0 -5 8 -11 18 -15 18 -6
76 -38 102 -56 20 -14 60 -37 85 -49 28 -12 46 -35 46 -58 1 -10 0 -683 0
-1496 -1 -813 1 -1482 4 -1486 2 -5 -2 -14 -9 -20 -10 -8 -16 -9 -21 -1 -3 5
-15 10 -26 10 -10 0 -19 3 -19 8 0 4 -21 18 -47 31 -27 14 -55 30 -63 36 -8 7
-46 29 -85 50 -38 20 -77 43 -85 50 -8 7 -28 19 -45 27 -43 21 -128 69 -141
79 -6 5 -31 20 -55 33 -99 53 -114 61 -125 71 -6 6 -33 22 -60 35 -27 14 -51
28 -54 31 -7 8 -108 65 -147 84 -18 8 -33 20 -33 27 0 6 -3 9 -6 5 -4 -3 -29
7 -56 22 -57 33 -82 31 -97 -8 -11 -26 -18 -39 -54 -93 -10 -16 -15 -28 -11
-28 4 0 -1 -10 -12 -22 -11 -13 -29 -41 -40 -63 -10 -22 -25 -45 -33 -51 -11
-9 -9 -15 10 -35 13 -14 39 -31 57 -38 17 -8 32 -17 32 -22 0 -5 8 -9 17 -9 9
0 24 -6 32 -14 15 -12 288 -174 321 -189 8 -4 33 -18 55 -32 22 -13 52 -29 68
-36 15 -6 27 -15 27 -20 0 -5 6 -9 14 -9 8 0 21 -6 28 -13 7 -7 24 -18 38 -24
14 -7 52 -28 85 -48 33 -19 75 -42 93 -50 17 -8 32 -20 32 -25 0 -6 9 -10 19
-10 11 0 21 -4 23 -9 2 -4 38 -27 81 -50 42 -24 77 -47 77 -51 0 -5 -28 -25
-62 -45 -35 -19 -70 -40 -78 -45 -8 -6 -26 -16 -40 -22 -14 -7 -27 -16 -30
-20 -3 -4 -17 -12 -30 -17 -38 -17 -133 -71 -151 -87 -8 -8 -23 -14 -32 -14
-9 0 -17 -5 -17 -10 0 -6 -10 -14 -22 -19 -13 -5 -58 -29 -100 -55 -43 -25
-108 -62 -145 -82 -38 -20 -74 -41 -81 -47 -21 -16 -75 -47 -104 -58 -16 -6
-28 -15 -28 -20 0 -5 -6 -9 -13 -9 -7 0 -36 -16 -66 -35 -29 -19 -54 -35 -56
-35 -2 0 -58 -31 -124 -70 -66 -38 -125 -70 -131 -70 -5 0 -10 -4 -10 -9 0 -5
-12 -14 -27 -20 -42 -18 -86 -43 -101 -58 -7 -7 -19 -13 -26 -13 -8 0 -19 -7
-26 -15 -7 -8 -20 -15 -30 -15 -10 0 -20 -7 -24 -15 -3 -8 -12 -15 -20 -15 -8
0 -34 -13 -58 -28 -24 -16 -68 -42 -98 -58 -30 -16 -57 -32 -60 -35 -5 -6
-100 -61 -140 -81 -14 -7 -27 -15 -30 -19 -6 -8 -57 -35 -92 -50 -16 -6 -28
-14 -28 -17 0 -4 -27 -20 -60 -36 -33 -16 -60 -33 -60 -38 0 -4 -5 -8 -11 -8
-6 0 -63 -31 -127 -69 -64 -37 -127 -72 -139 -75 -13 -4 -23 -11 -23 -14 0 -4
-21 -19 -47 -32 -27 -14 -49 -28 -51 -32 -9 -20 -59 -3 -149 50 -54 32 -105
62 -113 66 -8 4 -24 12 -35 19 -108 66 -173 103 -207 117 -16 7 -28 16 -28 21
0 5 -6 9 -14 9 -8 0 -21 6 -28 13 -7 7 -24 18 -38 25 -64 33 -85 46 -91 54 -3
5 -13 10 -21 12 -9 1 -22 7 -29 12 -8 6 -68 42 -134 80 -66 38 -129 75 -140
81 -11 7 -34 19 -52 28 -17 8 -34 19 -38 25 -3 5 -15 10 -26 10 -10 0 -19 5
-19 11 0 5 -15 17 -32 25 -18 8 -40 18 -48 23 -89 55 -190 111 -199 111 -6 0
-14 6 -17 14 -3 8 -17 17 -32 21 -15 4 -29 10 -32 14 -8 11 -148 91 -159 91
-6 0 -11 5 -11 10 0 6 -5 10 -10 10 -13 0 -169 90 -176 102 -3 4 -12 8 -20 8
-8 0 -20 5 -27 10 -30 25 -89 60 -102 60 -8 0 -15 4 -15 8 0 4 -26 21 -57 37
-32 16 -64 35 -71 42 -7 7 -20 13 -28 13 -8 0 -14 4 -14 9 0 5 -12 14 -27 20
-35 15 -86 42 -93 50 -3 3 -19 13 -35 22 -45 23 -79 43 -85 49 -3 3 -16 11
-30 18 -14 6 -52 28 -85 47 -33 20 -68 38 -77 41 -34 12 -26 31 23 54 27 13
49 26 49 29 0 4 24 17 52 31 29 13 55 28 58 32 3 4 26 18 50 31 25 14 61 33
80 43 19 11 37 22 40 25 3 4 30 20 60 36 30 16 73 41 95 54 22 14 60 36 85 50
25 13 56 32 69 41 13 10 27 15 32 12 5 -3 9 -1 9 4 0 5 15 17 33 26 17 9 39
21 47 26 37 24 242 140 246 140 3 0 20 12 39 26 l33 25 -25 50 c-14 27 -30 49
-34 49 -5 0 -9 8 -9 17 0 9 -6 24 -14 32 -7 9 -25 36 -38 61 -52 93 -63 110
-73 110 -5 0 -37 -16 -70 -35 -33 -19 -71 -40 -85 -47 -14 -7 -36 -20 -49 -30
-13 -10 -27 -15 -32 -12 -5 3 -9 0 -9 -5 0 -6 -15 -18 -32 -26 -18 -9 -42 -21
-53 -28 -84 -51 -186 -107 -195 -107 -5 0 -10 -4 -10 -10 0 -5 -5 -10 -10 -10
-6 0 -39 -18 -74 -40 -35 -22 -67 -40 -71 -40 -5 0 -16 -7 -26 -16 -9 -8 -25
-17 -34 -18 -9 -1 -20 -7 -24 -14 -3 -6 -18 -16 -31 -22 -14 -6 -34 -16 -45
-23 -101 -61 -256 -147 -265 -147 -5 0 -11 6 -11 13 -3 33 -4 2995 -1 3013 2
11 16 25 30 32 15 6 41 21 57 32 17 11 37 23 45 27 8 3 33 18 55 31 22 14 65
39 95 55 30 16 62 36 71 43 8 8 19 14 23 14 5 0 45 23 91 50 46 28 86 50 91
50 4 0 15 6 23 14 9 8 39 26 66 41 28 14 64 35 80 46 17 10 41 23 54 29 13 6
44 24 68 40 24 17 46 30 49 30 6 0 147 82 154 90 3 3 27 16 55 30 27 14 56 31
63 38 7 6 17 12 22 12 5 0 29 13 53 30 24 16 55 34 68 40 13 6 42 21 64 35 22
14 49 30 60 35 11 6 27 14 35 20 8 5 60 35 115 66 55 32 102 61 105 65 3 4 18
11 33 14 15 4 27 11 27 15 0 5 9 12 21 15 11 4 40 19 62 35 23 15 52 31 65 34
12 4 22 11 22 16 0 4 12 13 28 19 15 6 36 16 47 23 51 32 71 42 78 43 4 0 11
5 15 11 4 6 17 14 29 18 13 4 29 13 36 19 7 7 28 20 47 31 19 10 53 28 75 40
22 12 59 34 83 50 24 15 53 31 65 37 12 5 36 18 52 29 17 11 40 24 53 30 13 5
30 17 39 26 9 8 25 14 37 12 l21 -3 0 -630 c0 -596 1 -631 18 -643 22 -17 355
-18 371 -2 7 7 11 224 12 643 1 348 2 636 3 640 1 11 42 -2 61 -18z"/>
<path d="M1578 5207 c-13 -4 -26 -13 -30 -20 -9 -13 -1 -58 10 -67 4 -3 13
-16 20 -30 6 -14 16 -32 21 -40 24 -36 141 -242 141 -246 0 -3 16 -30 35 -60
19 -30 35 -58 35 -63 0 -4 9 -18 20 -31 11 -13 20 -31 20 -42 0 -10 5 -18 10
-18 6 0 15 -10 20 -22 6 -13 21 -41 34 -63 13 -22 35 -60 47 -85 13 -25 29
-52 35 -60 13 -16 65 -108 86 -150 7 -14 15 -27 19 -30 3 -3 8 -12 12 -20 4
-8 18 -33 32 -55 14 -22 32 -53 40 -70 9 -16 24 -43 35 -60 11 -16 23 -37 27
-45 6 -14 91 -164 113 -200 62 -103 130 -224 130 -231 0 -5 4 -9 9 -9 5 0 13
-9 16 -20 3 -11 44 -85 91 -164 46 -79 84 -149 84 -154 0 -5 7 -12 15 -16 8
-3 15 -14 15 -25 0 -11 6 -26 14 -34 8 -8 29 -41 47 -73 17 -33 39 -70 48 -84
9 -14 22 -36 29 -50 7 -14 21 -38 32 -55 11 -16 24 -39 29 -50 10 -23 76 -135
88 -150 4 -5 21 -36 36 -67 16 -31 33 -58 38 -60 5 -2 11 -13 14 -26 2 -12 11
-29 19 -38 9 -8 16 -19 16 -24 0 -5 13 -28 29 -52 16 -24 32 -53 35 -65 4 -13
11 -23 16 -23 5 0 14 -16 20 -35 6 -19 16 -35 21 -35 5 0 9 -6 9 -13 0 -7 16
-36 35 -66 19 -29 35 -54 35 -56 0 -7 114 -200 121 -205 4 -3 11 -18 14 -33 4
-15 10 -27 14 -27 3 0 17 -21 31 -47 13 -27 37 -67 52 -90 15 -23 28 -45 28
-50 1 -4 23 -44 50 -88 28 -44 55 -92 61 -107 6 -16 15 -28 20 -28 5 0 9 -7 9
-15 0 -8 16 -38 35 -65 19 -27 35 -54 35 -59 0 -5 7 -14 15 -21 13 -11 20 -11
40 0 14 7 25 20 25 27 0 7 7 16 15 19 8 4 15 13 15 21 0 7 15 38 33 67 17 28
37 61 44 72 7 10 24 42 39 69 14 28 31 56 37 64 6 7 12 20 14 29 1 9 8 21 15
27 7 5 19 21 25 35 7 14 28 52 48 85 19 33 48 85 65 115 17 30 39 69 50 85 11
17 23 37 27 45 4 8 45 80 91 160 46 80 94 163 107 185 12 22 32 58 45 80 12
22 30 51 39 65 10 14 28 45 40 70 12 25 28 50 34 55 7 6 13 16 15 24 4 19 85
155 94 159 5 2 6 8 2 13 -3 5 -1 9 3 9 5 0 17 20 28 45 11 25 23 45 26 45 4 0
12 15 20 33 7 17 16 34 20 37 6 5 40 66 78 138 8 15 17 29 20 32 3 3 19 30 35
60 16 30 42 74 58 98 15 24 28 49 28 57 0 7 3 15 8 17 9 4 92 143 92 154 0 4
6 15 14 23 7 9 25 36 38 61 14 25 35 61 47 80 11 19 26 47 32 63 6 15 15 27
20 27 5 0 9 5 9 10 0 6 32 65 70 131 39 66 70 122 70 125 0 2 15 28 33 57 51
82 56 90 68 117 5 13 14 27 18 30 4 3 27 41 51 85 23 44 48 87 54 95 6 8 22
35 36 60 13 25 26 47 29 50 3 3 14 21 23 40 22 43 56 102 89 155 25 38 43 71
71 125 7 14 15 27 18 30 3 3 11 16 18 30 7 14 21 39 32 55 11 17 24 39 29 51
5 12 23 44 40 71 37 60 40 97 9 115 -18 10 -488 12 -2266 13 -1233 0 -2252 -3
-2264 -8z m3502 -401 c0 -6 -22 -22 -48 -34 -92 -46 -122 -64 -122 -72 0 -5
-13 -11 -30 -15 -16 -4 -30 -10 -30 -14 0 -3 -12 -12 -27 -19 -16 -6 -44 -21
-63 -33 -19 -12 -55 -33 -80 -47 -25 -13 -52 -30 -60 -37 -8 -6 -35 -22 -59
-34 -24 -12 -50 -28 -58 -36 -8 -8 -20 -15 -27 -15 -8 0 -19 -7 -26 -15 -7 -8
-20 -15 -30 -15 -10 0 -23 -7 -30 -15 -7 -9 -37 -27 -67 -41 -29 -14 -53 -30
-53 -35 0 -5 -7 -9 -16 -9 -9 0 -27 -9 -41 -20 -14 -11 -32 -20 -39 -20 -8 0
-14 -4 -14 -9 0 -5 -10 -13 -22 -17 -13 -3 -43 -20 -67 -36 -25 -17 -54 -34
-65 -39 -12 -5 -41 -21 -66 -35 -73 -43 -129 -41 -220 9 -41 22 -77 43 -80 46
-3 4 -16 12 -30 19 -14 7 -43 23 -65 36 -22 12 -60 34 -85 47 -44 25 -106 61
-145 87 -11 6 -31 17 -45 24 -14 7 -32 17 -40 24 -8 7 -37 24 -65 39 -73 38
-160 88 -176 101 -8 6 -21 14 -29 18 -8 3 -28 15 -45 26 -16 11 -39 24 -51 29
-12 5 -71 39 -132 75 -61 36 -116 66 -121 66 -6 0 -11 6 -11 14 0 11 202 13
1240 13 910 0 1240 -3 1240 -11z m-2660 -346 c0 -5 11 -12 25 -16 14 -3 25
-10 25 -14 0 -4 14 -13 30 -20 17 -7 30 -16 30 -20 0 -4 11 -11 25 -14 13 -3
41 -18 62 -32 21 -14 47 -30 58 -36 11 -5 38 -20 60 -33 22 -14 51 -29 65 -35
13 -6 27 -14 30 -18 3 -4 25 -18 50 -31 25 -13 50 -28 56 -32 6 -5 37 -23 70
-40 32 -17 61 -34 64 -38 3 -3 26 -17 53 -31 26 -13 47 -28 47 -31 0 -4 14
-10 30 -14 17 -4 30 -10 30 -14 0 -4 24 -20 53 -36 28 -15 70 -38 92 -51 66
-38 93 -53 125 -70 17 -8 30 -20 30 -25 0 -5 7 -9 15 -9 8 0 31 -17 52 -37
l38 -38 1 -678 c1 -373 4 -680 7 -684 4 -3 2 -14 -4 -25 -8 -15 -13 -17 -25
-7 -8 6 -14 15 -14 19 0 5 -22 46 -50 93 -27 47 -50 90 -50 95 0 6 -4 12 -8
14 -9 3 -52 76 -135 228 -17 30 -33 57 -36 60 -4 3 -12 16 -19 30 -21 43 -74
135 -81 140 -3 3 -17 27 -31 55 -14 27 -30 55 -37 62 -6 7 -15 23 -19 36 -3
12 -13 29 -20 38 -14 15 -52 81 -76 129 -7 14 -15 27 -18 30 -3 3 -12 19 -20
35 -8 17 -27 49 -42 72 -15 23 -28 44 -28 47 0 3 -22 43 -49 88 -64 109 -91
157 -109 193 -9 17 -18 32 -22 35 -7 5 -22 32 -52 90 -7 14 -15 27 -18 30 -3
3 -11 16 -18 30 -31 59 -46 86 -59 98 -7 8 -11 18 -8 23 4 5 1 9 -4 9 -6 0
-17 15 -25 34 -8 18 -19 37 -25 40 -6 4 -11 13 -11 21 0 8 -13 33 -28 57 -16
24 -40 63 -53 88 -13 25 -32 56 -41 69 -22 29 -23 51 -3 51 8 0 15 -4 15 -10z
m2870 2 c0 -10 -64 -117 -74 -124 -6 -4 -7 -8 -3 -8 5 0 0 -12 -11 -27 -10
-16 -22 -35 -26 -43 -3 -8 -17 -33 -31 -55 -13 -22 -28 -50 -34 -62 -5 -11
-15 -24 -20 -28 -6 -3 -11 -13 -11 -20 0 -8 -8 -24 -17 -35 -10 -11 -18 -24
-18 -28 -1 -7 -37 -68 -52 -87 -4 -6 -19 -33 -33 -60 -14 -28 -28 -52 -31 -55
-3 -3 -23 -36 -45 -75 -21 -38 -44 -79 -51 -90 -7 -11 -17 -32 -24 -47 -6 -16
-15 -28 -20 -28 -5 0 -9 -5 -9 -11 0 -8 -185 -335 -220 -389 -6 -8 -16 -26
-22 -40 -7 -14 -18 -31 -25 -38 -7 -7 -13 -20 -13 -28 0 -8 -4 -14 -9 -14 -5
0 -13 -10 -17 -22 -4 -13 -18 -41 -33 -63 -14 -22 -32 -53 -41 -70 -47 -86
-69 -124 -95 -165 -16 -25 -41 -67 -55 -95 -26 -49 -84 -149 -121 -210 -10
-16 -30 -54 -46 -83 -15 -29 -32 -51 -38 -49 -13 5 -16 1313 -3 1377 6 31 20
55 46 80 38 35 126 92 150 96 8 1 21 9 30 17 10 8 24 17 32 20 8 4 33 18 55
32 22 13 51 30 65 36 13 5 27 13 30 17 3 4 16 13 30 20 14 7 39 21 55 32 17
11 40 24 52 29 12 6 41 22 65 37 24 16 63 39 88 52 25 13 47 27 50 31 3 3 16
12 30 18 14 7 52 28 85 48 33 19 75 42 93 50 17 8 32 20 32 25 0 6 7 10 16 10
9 0 27 9 41 20 14 11 32 20 39 20 8 0 14 5 14 10 0 6 6 10 13 10 7 0 35 15 62
33 45 30 75 41 75 29z"/>
</g>
</svg>
